<svg xmlns="http://www.w3.org/2000/svg" viewBox="0 0 100 100"><rect width="100" height="100" rx="22" fill="#2a2622"/><g transform="translate(8 8) scale(0.84)"><circle cx="50" cy="52" r="46" fill="#8a5a31"/><circle cx="50" cy="48" r="46" fill="#f3e0b8"/><circle cx="50" cy="48" r="38.5" fill="none" stroke="#b3261e" stroke-width="3"/><path d="M50.4 36.9L50.4 35.2L70.8 35.2L70.8 36.9L50.4 36.9ZM45.2 67.1L45.2 35.2L45.2 32.2L53.4 35.2L52.6 35.2L52.6 65.0Q52.6 65.3 51.0 66.2Q49.4 67.1 46.5 67.1L46.5 67.1L45.2 67.1ZM66.7 58.1L66.7 35.2L66.1 35.2L69.4 31.6L76.3 36.8Q76.0 37.1 75.5 37.4Q75.1 37.7 74.2 37.9L74.2 37.9L74.2 59.0Q74.2 61.5 73.7 63.3Q73.2 65.1 71.5 66.0Q69.8 67.0 66.2 67.4L66.2 67.4Q66.1 65.5 66.0 64.2Q65.9 62.8 65.5 62.0L65.5 62.0Q65.3 61.2 64.7 60.6Q64.1 60.0 62.8 59.7L62.8 59.7L62.8 59.0Q62.8 59.0 63.2 59.0Q63.6 59.0 64.1 59.0Q64.6 59.0 65.1 59.0Q65.6 59.1 65.8 59.1L65.8 59.1Q66.4 59.1 66.5 58.8Q66.7 58.6 66.7 58.1L66.7 58.1ZM55.6 77.5L55.6 23.5L65.6 24.5Q65.5 25.0 65.1 25.5Q64.7 25.9 63.5 26.1L63.5 26.1L63.5 74.7Q63.5 75.1 62.5 75.8Q61.5 76.4 60.1 76.9Q58.6 77.5 57.1 77.5L57.1 77.5L55.6 77.5ZM27.2 34.2L27.2 32.6L38.7 32.6L38.7 34.2L27.2 34.2ZM27.2 46.6L27.2 45.0L38.7 45.0L38.7 46.6L27.2 46.6ZM26.9 56.1L26.9 54.5L39.3 54.5L39.3 56.1L26.9 56.1ZM26.9 70.0L26.9 68.4L39.3 68.4L39.3 70.0L26.9 70.0ZM23.7 76.0L23.7 32.6L23.7 29.6L31.8 32.6L31.0 32.6L31.0 73.7Q31.0 74.1 29.4 75.0Q27.8 76.0 25.1 76.0L25.1 76.0L23.7 76.0ZM35.4 49.7L35.4 32.6L34.8 32.6L38.1 29.1L44.7 34.1Q44.5 34.4 44.0 34.7Q43.4 35.1 42.6 35.2L42.6 35.2L42.6 48.0Q42.6 48.2 41.6 48.6Q40.6 49.0 39.2 49.3Q37.8 49.7 36.7 49.7L36.7 49.7L35.4 49.7ZM35.3 73.8L35.3 54.5L34.7 54.5L38.0 51.0L44.7 56.1Q44.4 56.4 43.9 56.7Q43.4 57.0 42.6 57.2L42.6 57.2L42.6 72.1Q42.6 72.3 41.6 72.7Q40.5 73.1 39.2 73.5Q37.8 73.8 36.6 73.8L36.6 73.8L35.3 73.8ZM30.0 22.5L30.0 22.5L40.4 24.3Q40.1 25.7 38.1 25.8L38.1 25.8Q36.9 27.4 35.3 29.5Q33.6 31.5 32.3 33.0L32.3 33.0L29.9 33.0Q29.9 31.7 30.0 29.8Q30.0 28.0 30.1 26.0Q30.1 24.1 30.0 22.5Z" fill="#b3261e" transform="translate(0 -2)"/></g></svg>
